<svg xmlns="http://www.w3.org/2000/svg" width="256" height="256"><path fill-opacity=".016" d="M0 128.004v128.004l128.25-.254 128.25-.254.254-127.75L257.008 0H0v128.004m.485.496c0 70.4.119 99.053.265 63.672.146-35.38.146-92.98 0-128C.604 29.153.485 58.1.485 128.5" fill="#1976D2" fill-rule="evenodd"/><path fill-opacity=".167" d="M69.308 19.336L42.117 38.5 42.078 78l-.039 39.5 57.472 38 57.472 38 .008 18.357c.007 14.366-.265 18.252-1.252 17.873-.694-.266-26.457-17.176-57.25-37.578L42.5 155.059l-.271 19.47c-.149 10.709-.149 28.266 0 39.014l.271 19.544 20.886-14.519c11.487-7.985 21.387-14.243 22-13.908.613.336 18.549 12.079 39.859 26.096l38.745 25.485 22.755-15.303c12.515-8.416 23.753-16.008 24.974-16.87 2.217-1.567 2.218-1.586 2.212-35.568l-.006-34-14.051-9.488c-7.727-5.218-14.234-9.786-14.459-10.15-.226-.364 6.094-4.87 14.043-10.012l14.452-9.35.018-40 .018-40-21.373-14.186L171.2 7.129l-36.134 24.935C115.193 45.779 98.723 57 98.466 57 98.21 57 98 44.175 98 28.5S97.662.039 97.25.086c-.412.048-12.986 8.71-27.942 19.25m.442 20.093L56 49.423v56.095l22.227 14.991c77.052 51.969 90.426 60.837 91.773 60.849.825.008 7.233-4.152 14.239-9.245l12.74-9.259-20.337-13.677A48456.101 48456.101 0 00134.688 121c-11.891-7.975-21.522-14.815-21.403-15.2.118-.386 18.89-13.813 41.715-29.839 22.825-16.027 41.619-29.256 41.765-29.398.146-.143-5.807-4.186-13.228-8.984-8.398-5.43-13.973-8.439-14.765-7.967-.699.416-19.787 13.499-42.417 29.073C103.726 74.258 84.945 87 84.62 87c-.324 0-.709-12.952-.855-28.782L83.5 29.435l-13.75 9.994M174.5 83.14a43976.991 43976.991 0 01-26.405 18.871l-5.405 3.854 13.149 8.568c7.232 4.712 13.579 8.567 14.104 8.567.525 0 6.827-3.844 14.006-8.542L197 105.917V86.958c0-10.427-.338-18.93-.75-18.896-.412.034-10.2 6.819-21.75 15.078M56 194.006v9.007l6.479-4.257c3.564-2.341 6.489-4.505 6.5-4.809.023-.613-11.556-8.947-12.43-8.947-.302 0-.549 4.053-.549 9.006m127.75-.474L171 201.933v14.117c0 7.764.393 13.967.873 13.783.48-.183 6.321-3.933 12.981-8.333l12.108-8 .019-14.25c.01-7.838-.094-14.221-.231-14.185-.137.036-5.988 3.846-13 8.467" fill="#1976D2" fill-rule="evenodd"/><path fill-opacity=".316" d="M69.75 19.709L42 39.203v77.735l41.75 27.685a78867.525 78867.525 0 0057.5 38.099L157 193.135v18.991c0 14.925-.268 18.832-1.25 18.246-.687-.41-26.562-17.514-57.5-38.008L42 155.101V233.176l6.25-4.412c24.995-17.643 35.962-24.897 37.022-24.488 1.103.425 34.049 21.988 66.45 43.492l12.222 8.112 24.778-16.75 24.778-16.75.263-33.623.263-33.623-15.027-10.233-15.027-10.234 15.014-9.984L214 114.698V36.302l-21.469-14.281-21.469-14.282-8.781 6.019c-4.83 3.31-21.156 14.553-36.281 24.984L98.5 57.708 98 28.961 97.5.214 69.75 19.709m.224 19.125L56.5 48.668l-.265 28.593-.265 28.593 25.765 17.426c14.171 9.585 39.04 26.315 55.265 37.178 16.225 10.864 30.201 20.371 31.057 21.127 1.355 1.197 3.327.114 15.203-8.355 7.506-5.351 13.555-10.058 13.443-10.458-.111-.401-7.853-5.821-17.203-12.045-35.062-23.341-65.01-43.814-65.293-44.635-.161-.467 18.401-13.984 41.25-30.038C178.306 60.001 197 46.656 197 46.399 197 45.627 171.101 29 169.898 29c-.949 0-50.47 33.703-76.648 52.166L85 86.984V57.992C85 42.046 84.651 29 84.224 29c-.426 0-6.839 4.425-14.25 9.834M170 85.958c-14.575 10.382-26.5 19.332-26.5 19.888 0 .556 5.927 4.871 13.17 9.589l13.17 8.579 14.08-9.138 14.08-9.137V86.37c0-10.654-.338-19.352-.75-19.33-.412.023-12.675 8.536-27.25 18.918M56 193.452c0 5.251.257 9.548.571 9.548.314 0 3.469-2.068 7.012-4.596l6.441-4.597-2.262-1.729c-1.244-.951-4.4-3.179-7.012-4.952L56 183.904v9.548m127.275-.136L171.05 201.5l-.025 14.768-.025 14.767L184.5 222l13.5-9.035v-13.983c0-10.554-.306-13.966-1.25-13.916-.687.037-6.751 3.749-13.475 8.25" fill="#1976D2" fill-rule="evenodd"/><path fill-opacity=".168" d="M69.271 20.297L42.043 39.5l-.022 38.514L42 116.528l57.445 37.986L156.89 192.5l.055 19.25c.03 10.588-.199 19.25-.51 19.25-.31 0-26.073-16.904-57.25-37.564L42.5 155.873l-.262 37.718c-.144 20.745-.069 37.911.167 38.147.236.236 9.579-5.976 20.762-13.805s20.788-14.241 21.344-14.25c.555-.009 15.855 9.793 34 21.782 18.144 11.989 35.842 23.605 39.328 25.812l6.339 4.015 24.911-16.772L214 221.747l-.003-33.123-.003-33.124-14.543-9.92c-7.998-5.456-14.738-10.235-14.976-10.62-.238-.385 6.298-5.146 14.525-10.58l14.958-9.88-.006-39-.006-39-21.435-14.227-21.436-14.228-36.288 25.006L98.5 58.056l-.265-28.528c-.146-15.69-.596-28.507-1-28.481-.404.027-12.988 8.689-27.964 19.25m1.001 17.916L56.044 48.5l.018 29 .019 29 46.993 31.5c25.846 17.325 51.14 34.379 56.209 37.897 5.07 3.518 9.729 6.443 10.355 6.5.626.057 7.311-4.335 14.856-9.76l13.718-9.863-16.856-11.171c-23.762-15.749-64.623-43.537-66.07-44.932-.939-.905 8.009-7.645 39.387-29.671 22.33-15.675 41.267-28.982 42.081-29.572 1.187-.86-1.328-2.897-12.696-10.285l-14.175-9.213-36.692 25.241C113.011 67.054 94.025 80.147 91 82.266l-5.5 3.854-.5-29.097-.5-29.097-14.228 10.287M170 85.577c-15.125 10.721-27.593 19.815-27.706 20.208-.298 1.03 25.914 17.728 27.706 17.65.825-.036 7.463-3.959 14.75-8.717l13.25-8.651V86.034c0-11.019-.113-20.015-.25-19.992-.137.023-12.625 8.814-27.75 19.535M56 193.998v10.115l6.968-4.806c3.833-2.644 6.983-5.128 7-5.52.027-.592-8.179-6.51-12.718-9.172-.966-.566-1.25 1.566-1.25 9.383m127.75-1.276l-12.75 8.59v14.927c0 8.21.338 14.778.75 14.594.412-.183 6.476-4.158 13.475-8.833l12.725-8.5.025-14.75c.014-8.113-.313-14.72-.725-14.684-.412.037-6.488 3.932-13.5 8.656" fill="#1976D2" fill-rule="evenodd"/></svg>